Coordinates
version=1
nRows=6
nColumns=63
inDegrees=yes

Units are S.I. units (second, meters, Newtons, ...)
If the header above contains a line with 'inDegrees', this indicates whether rotational values are in degrees (yes) or radians (no).

endheader
time	pelvis_tilt	pelvis_list	pelvis_rotation	pelvis_tx	pelvis_ty	pelvis_tz	hip_flexion_r	hip_adduction_r	hip_rotation_r	knee_angle_r	knee_angle_r_beta	ankle_angle_r	subtalar_angle_r	mtp_angle_r	hip_flexion_l	hip_adduction_l	hip_rotation_l	knee_angle_l	knee_angle_l_beta	ankle_angle_l	subtalar_angle_l	mtp_angle_l	L5_S1_Flex_Ext	L5_S1_Lat_Bending	L5_S1_axial_rotation	L4_L5_Flex_Ext	L4_L5_Lat_Bending	L4_L5_axial_rotation	L3_L4_Flex_Ext	L3_L4_Lat_Bending	L3_L4_axial_rotation	L2_L3_Flex_Ext	L2_L3_Lat_Bending	L2_L3_axial_rotation	L1_L2_Flex_Ext	L1_L2_Lat_Bending	L1_L2_axial_rotation	L1_T12_Flex_Ext	L1_T12_Lat_Bending	L1_T12_axial_rotation	Abs_r3	Abs_r2	Abs_r1	Abs_t1	Abs_t2	neck_flexion	neck_bending	neck_rotation	arm_flex_r	arm_add_r	arm_rot_r	elbow_flex_r	pro_sup_r	wrist_flex_r	wrist_dev_r	arm_flex_l	arm_add_l	arm_rot_l	elbow_flex_l	pro_sup_l	wrist_flex_l	wrist_dev_l
      0.88135593	     -3.61526798	     -1.81308135	     94.78205830	      0.09163647	      1.00121187	      0.55859639	      3.89649298	     -6.10943131	     -5.57658620	     14.28410569	      0.24930468	     36.51571619	     15.02584647	      0.00000000	      5.35011618	      3.01343489	     -3.92322121	     15.72770032	      0.27450015	     36.56536699	      6.07098997	      0.00000000	      0.19444468	     -0.41043926	      1.46935117	      0.36110321	     -0.54588422	      1.56118562	      0.31945316	     -0.99794203	      1.56118562	      0.22223082	     -0.99794203	      1.28568227	      0.18056133	     -0.83696775	      1.19384782	      0.11110569	     -0.63577042	      1.10201338	      1.38889888	     -4.64297104	      8.17209039	      0.00000000	      0.00000000	     27.99754552	      2.59981061	      4.30456453	      7.94383258	    -15.14022522	     57.44649705	     55.07115402	     76.86653561	      5.39732666	     -1.21651989	      6.96050888	    -13.66230704	     48.93291847	     57.57238505	     77.99646175	     12.12480738	      3.08351123
      0.89830508	     -3.54493539	     -1.69600485	     94.75003824	      0.09116082	      1.00136962	      0.55756801	      3.90936043	     -6.07111764	     -5.46360111	     14.71479278	      0.25682158	     36.76533824	     14.88177977	      0.00000000	      5.09212703	      2.94859350	     -4.28226067	     15.61981815	      0.27261726	     36.58399760	      6.42730739	      0.00000000	      0.19276765	     -0.39503645	      1.47142366	      0.35798881	     -0.52539848	      1.56338764	      0.31669798	     -0.96049163	      1.56338764	      0.22031415	     -0.96049163	      1.28749571	      0.17900404	     -0.80555833	      1.19553173	      0.11014744	     -0.61191146	      1.10356775	      1.37692007	     -4.46873135	      8.18361699	      0.00000000	      0.00000000	     27.99150354	      2.60331305	      4.37119534	      7.84433217	    -15.20058597	     57.55011949	     55.00071931	     76.28285355	      5.09009929	     -1.96909393	      6.72882469	    -13.57141771	     48.65219802	     57.64993641	     78.76946962	     11.80391141	      2.91529442
      0.91525424	     -3.48813383	     -1.56870765	     94.60126606	      0.09093405	      1.00164879	      0.55647128	      3.94111738	     -6.00801840	     -5.11222232	     15.15075902	      0.26443063	     36.94903277	     14.54970402	      0.00000000	      4.73314895	      2.87898676	     -4.80844504	     15.38100495	      0.26844918	     36.52193195	      6.76563489	      0.00000000	      0.18951188	     -0.38295124	      1.50796349	      0.35194251	     -0.50932515	      1.60221120	      0.31134906	     -0.93110765	      1.60221120	      0.21659312	     -0.93110765	      1.31946805	      0.17598073	     -0.78091417	      1.22522033	      0.10828709	     -0.59319148	      1.13097261	      1.35366439	     -4.33202105	      8.38684052	      0.00000000	      0.00000000	     27.99349699	      2.51845391	      4.23066045	      7.51652637	    -15.19813353	     57.02797969	     55.01510269	     76.92780411	      4.84074880	     -2.42585571	      6.60137042	    -13.45928732	     48.63373318	     57.54368030	     78.76174392	     11.44826528	      2.72274829
      0.93220339	     -3.45975676	     -1.46178127	     94.64328325	      0.09023853	      1.00200213	      0.55559942	      3.97904410	     -6.04346099	     -5.35543286	     15.62679806	      0.27273908	     37.11955039	     14.65289498	      0.00000000	      4.35741459	      3.09976005	     -3.36407944	     14.98766809	      0.26158416	     36.03462135	      4.69569319	      0.00000000	      0.18622144	     -0.37100362	      1.49416880	      0.34583184	     -0.49343481	      1.58755435	      0.30594320	     -0.90205820	      1.58755435	      0.21283248	     -0.90205820	      1.30739770	      0.17292523	     -0.75655058	      1.21401215	      0.10640693	     -0.57468461	      1.12062660	      1.33016112	     -4.19686715	      8.31011860	      0.00000000	      0.00000000	     27.99793934	      2.51697699	      4.37932010	      7.43601413	    -15.28027443	     57.20394725	     55.00617516	     76.33228947	      4.23395207	     -2.91194852	      6.44562274	    -13.29918916	     48.53523992	     57.36671648	     79.03989490	     10.87712559	      2.45586761
      0.94915254	     -3.47876069	     -1.37541262	     94.43880068	      0.09011776	      1.00237357	      0.55493349	      4.12341834	     -6.06560356	     -5.08211166	     16.12431740	      0.28142243	     37.14977762	     14.37221769	      0.00000000	      4.01835430	      3.14988174	     -3.58792394	     14.68434527	      0.25629017	     35.86311102	      4.55081835	      0.00000000	      0.18472984	     -0.36838610	      1.53811867	      0.34306179	     -0.48995351	      1.63425109	      0.30349265	     -0.89569396	      1.63425109	      0.21112773	     -0.89569396	      1.34585384	      0.17154013	     -0.75121293	      1.24972142	      0.10555463	     -0.57063006	      1.15358901	      1.31950677	     -4.16725720	      8.55455463	      0.00000000	      0.00000000	     28.01532849	      2.52153919	      4.35268356	      7.37866707	    -15.29450000	     57.23454266	     54.91984008	     75.81547765	      3.93232183	     -3.15293861	      6.45718720	    -13.16610113	     48.73543112	     57.01786694	     78.49865625	     10.41943200	      2.09075780
      0.96610169	     -3.51753745	     -1.32683726	     94.33078689	      0.08990826	      1.00265261	      0.55442752	      4.29477154	     -6.09730652	     -4.79866450	     16.60368470	      0.28978897	     37.11844827	     13.94139117	      0.00000000	      3.77914993	      3.29639231	     -3.08063802	     14.45492922	      0.25228611	     35.62496062	      3.60294106	      0.00000000	      0.19174535	     -0.36970166	      1.56148854	      0.35609029	     -0.49170321	      1.65908157	      0.31501844	     -0.89889262	      1.65908157	      0.21914576	     -0.89889262	      1.36630247	      0.17805473	     -0.75389563	      1.26870944	      0.10956329	     -0.57266787	      1.17111640	      1.36961787	     -4.18213913	      8.68453081	      0.00000000	      0.00000000	     28.05153213	      2.54741323	      4.45120247	      7.53561519	    -15.30698231	     57.71767389	     54.74612123	     73.97230960	      3.81555407	     -3.11163919	      6.44638676	    -13.05470317	     48.84681739	     56.68070019	     77.99932268	     10.20868479	      1.76243576
